<svg width="110" height="110" viewBox="0 0 110 110" fill="none" xmlns="http://www.w3.org/2000/svg">
<rect width="110" height="110" fill="#F5F5F5"/>
<rect x="2.5" y="2.5" width="105" height="105" stroke="#478CBF" stroke-width="5"/>
<path d="M84.004 67.01H85.972V70.322C86.148 70.106 86.364 69.926 86.62 69.782C86.884 69.638 87.188 69.566 87.532 69.566C87.996 69.566 88.396 69.67 88.732 69.878C89.068 70.078 89.324 70.37 89.5 70.754C89.684 71.138 89.776 71.602 89.776 72.146V75.65H87.688V72.386C87.688 72.042 87.616 71.782 87.472 71.606C87.328 71.422 87.116 71.33 86.836 71.33C86.548 71.33 86.332 71.442 86.188 71.666C86.044 71.89 85.972 72.178 85.972 72.53V75.65H84.004V67.01Z" fill="#3B434C"/>
<path d="M78.552 74.714H78.84V78.05H76.872V69.65H78.648L78.756 70.406C78.892 70.174 79.112 69.978 79.416 69.818C79.72 69.65 80.052 69.566 80.412 69.566C80.908 69.566 81.348 69.694 81.732 69.95C82.124 70.198 82.432 70.554 82.656 71.018C82.888 71.474 83.004 72.018 83.004 72.65C83.004 73.282 82.892 73.83 82.668 74.294C82.444 74.758 82.136 75.114 81.744 75.362C81.352 75.61 80.908 75.734 80.412 75.734C79.964 75.734 79.584 75.634 79.272 75.434C78.96 75.226 78.72 74.986 78.552 74.714ZM80.88 72.65C80.88 72.274 80.784 71.974 80.592 71.75C80.408 71.518 80.164 71.402 79.86 71.402C79.668 71.402 79.492 71.45 79.332 71.546C79.18 71.642 79.06 71.782 78.972 71.966C78.884 72.15 78.84 72.378 78.84 72.65C78.84 72.914 78.884 73.142 78.972 73.334C79.06 73.518 79.18 73.662 79.332 73.766C79.492 73.862 79.668 73.91 79.86 73.91C80.164 73.91 80.408 73.794 80.592 73.562C80.784 73.33 80.88 73.026 80.88 72.65Z" fill="#3B434C"/>
<path d="M74.036 75.65L73.904 74.906C73.688 75.154 73.464 75.354 73.232 75.506C73.008 75.658 72.704 75.734 72.32 75.734C71.968 75.734 71.644 75.67 71.348 75.542C71.06 75.406 70.828 75.21 70.652 74.954C70.476 74.698 70.388 74.386 70.388 74.018C70.388 73.522 70.564 73.114 70.916 72.794C71.268 72.474 71.824 72.27 72.584 72.182L73.904 72.038V71.69C73.904 71.578 73.848 71.466 73.736 71.354C73.624 71.234 73.452 71.174 73.22 71.174C73.012 71.174 72.832 71.23 72.68 71.342C72.528 71.454 72.424 71.61 72.368 71.81L70.7 71.21C70.884 70.666 71.196 70.258 71.636 69.986C72.076 69.706 72.628 69.566 73.292 69.566C74.132 69.566 74.772 69.774 75.212 70.19C75.652 70.606 75.872 71.178 75.872 71.906V75.65H74.036ZM73.904 73.142L72.968 73.25C72.784 73.274 72.644 73.334 72.548 73.43C72.452 73.526 72.404 73.642 72.404 73.778C72.404 73.914 72.46 74.026 72.572 74.114C72.692 74.202 72.856 74.246 73.064 74.246C73.232 74.246 73.376 74.21 73.496 74.138C73.624 74.058 73.724 73.946 73.796 73.802C73.868 73.658 73.904 73.478 73.904 73.262V73.142Z" fill="#3B434C"/>
<path d="M65.308 69.65H67.096L67.228 70.466C67.38 70.25 67.56 70.074 67.768 69.938C67.976 69.794 68.212 69.698 68.476 69.65C68.748 69.594 69.052 69.594 69.388 69.65V71.522C69.18 71.458 68.952 71.438 68.704 71.462C68.464 71.486 68.232 71.562 68.008 71.69C67.792 71.818 67.616 72.01 67.48 72.266C67.344 72.522 67.276 72.854 67.276 73.262V75.65H65.308V69.65Z" fill="#3B434C"/>
<path d="M62.268 70.01C62.068 69.642 61.812 69.374 61.5 69.206C61.188 69.03 60.824 68.942 60.408 68.942C59.976 68.942 59.592 69.054 59.256 69.278C58.92 69.494 58.656 69.794 58.464 70.178C58.28 70.554 58.188 70.978 58.188 71.45C58.188 71.954 58.28 72.394 58.464 72.77C58.648 73.146 58.912 73.438 59.256 73.646C59.608 73.854 60.028 73.958 60.516 73.958C60.796 73.958 61.052 73.91 61.284 73.814C61.516 73.718 61.724 73.586 61.908 73.418C62.092 73.242 62.252 73.042 62.388 72.818V72.47H60.372V70.838H64.308V73.298C64.116 73.706 63.84 74.098 63.48 74.474C63.12 74.842 62.68 75.146 62.16 75.386C61.64 75.618 61.04 75.734 60.36 75.734C59.72 75.734 59.136 75.63 58.608 75.422C58.088 75.214 57.636 74.918 57.252 74.534C56.868 74.15 56.572 73.698 56.364 73.178C56.164 72.65 56.064 72.074 56.064 71.45C56.064 70.826 56.164 70.254 56.364 69.734C56.572 69.206 56.864 68.75 57.24 68.366C57.624 67.982 58.076 67.686 58.596 67.478C59.116 67.27 59.696 67.166 60.336 67.166C60.952 67.166 61.52 67.262 62.04 67.454C62.568 67.646 63.02 67.922 63.396 68.282C63.78 68.634 64.06 69.058 64.236 69.554L62.268 70.01Z" fill="#3B434C"/>
<path d="M51.908 69.65V67.97H53.912V69.65H55.052V71.402H53.912V73.274C53.912 73.498 53.972 73.658 54.092 73.754C54.212 73.85 54.36 73.902 54.536 73.91C54.712 73.91 54.888 73.89 55.064 73.85V75.578C54.616 75.658 54.2 75.682 53.816 75.65C53.432 75.618 53.096 75.518 52.808 75.35C52.528 75.174 52.308 74.918 52.148 74.582C51.988 74.238 51.908 73.802 51.908 73.274V71.402H51.056V69.65H51.908Z" fill="#3B434C"/>
<path d="M45.604 74.714H45.892V78.05H43.924V69.65H45.7L45.808 70.406C45.944 70.174 46.164 69.978 46.468 69.818C46.772 69.65 47.104 69.566 47.464 69.566C47.96 69.566 48.4 69.694 48.784 69.95C49.176 70.198 49.484 70.554 49.708 71.018C49.94 71.474 50.056 72.018 50.056 72.65C50.056 73.282 49.944 73.83 49.72 74.294C49.496 74.758 49.188 75.114 48.796 75.362C48.404 75.61 47.96 75.734 47.464 75.734C47.016 75.734 46.636 75.634 46.324 75.434C46.012 75.226 45.772 74.986 45.604 74.714ZM47.932 72.65C47.932 72.274 47.836 71.974 47.644 71.75C47.46 71.518 47.216 71.402 46.912 71.402C46.72 71.402 46.544 71.45 46.384 71.546C46.232 71.642 46.112 71.782 46.024 71.966C45.936 72.15 45.892 72.378 45.892 72.65C45.892 72.914 45.936 73.142 46.024 73.334C46.112 73.518 46.232 73.662 46.384 73.766C46.544 73.862 46.72 73.91 46.912 73.91C47.216 73.91 47.46 73.794 47.644 73.562C47.836 73.33 47.932 73.026 47.932 72.65Z" fill="#3B434C"/>
<path d="M40.716 69.65H42.684V75.65H40.716V69.65ZM41.7 69.206C41.332 69.206 41.036 69.102 40.812 68.894C40.588 68.678 40.476 68.418 40.476 68.114C40.476 67.802 40.588 67.542 40.812 67.334C41.036 67.118 41.332 67.01 41.7 67.01C42.06 67.01 42.352 67.118 42.576 67.334C42.808 67.542 42.924 67.802 42.924 68.114C42.924 68.418 42.808 68.678 42.576 68.894C42.352 69.102 42.06 69.206 41.7 69.206Z" fill="#3B434C"/>
<ellipse cx="41.679" cy="68.125" rx="1.25" ry="1.125" fill="#478CBF"/>
<path d="M35.396 69.65H37.184L37.316 70.466C37.468 70.25 37.648 70.074 37.856 69.938C38.064 69.794 38.3 69.698 38.564 69.65C38.836 69.594 39.14 69.594 39.476 69.65V71.522C39.268 71.458 39.04 71.438 38.792 71.462C38.552 71.486 38.32 71.562 38.096 71.69C37.88 71.818 37.704 72.01 37.568 72.266C37.432 72.522 37.364 72.854 37.364 73.262V75.65H35.396V69.65Z" fill="#3B434C"/>
<path d="M31.54 75.734C30.948 75.742 30.424 75.618 29.968 75.362C29.52 75.106 29.168 74.746 28.912 74.282C28.664 73.818 28.54 73.278 28.54 72.662C28.54 72.054 28.664 71.518 28.912 71.054C29.168 70.582 29.52 70.218 29.968 69.962C30.416 69.698 30.932 69.566 31.516 69.566C32.204 69.566 32.804 69.742 33.316 70.094C33.828 70.446 34.184 70.93 34.384 71.546L32.5 71.954C32.428 71.762 32.316 71.614 32.164 71.51C32.02 71.406 31.852 71.354 31.66 71.354C31.46 71.354 31.28 71.41 31.12 71.522C30.968 71.634 30.848 71.79 30.76 71.99C30.672 72.19 30.628 72.414 30.628 72.662C30.628 73.038 30.724 73.346 30.916 73.586C31.108 73.826 31.352 73.946 31.648 73.946C31.84 73.946 32.008 73.894 32.152 73.79C32.304 73.686 32.424 73.538 32.512 73.346L34.396 73.766C34.204 74.358 33.848 74.834 33.328 75.194C32.816 75.546 32.22 75.726 31.54 75.734Z" fill="#3B434C"/>
<path d="M22.944 73.094C22.984 73.326 23.064 73.514 23.184 73.658C23.312 73.794 23.464 73.894 23.64 73.958C23.824 74.014 24.024 74.042 24.24 74.042C24.616 74.042 24.904 73.966 25.104 73.814C25.312 73.654 25.416 73.45 25.416 73.202C25.416 73.002 25.352 72.842 25.224 72.722C25.104 72.602 24.932 72.502 24.708 72.422C24.492 72.334 24.24 72.246 23.952 72.158C23.632 72.07 23.308 71.97 22.98 71.858C22.652 71.738 22.348 71.59 22.068 71.414C21.788 71.23 21.564 70.994 21.396 70.706C21.228 70.418 21.148 70.058 21.156 69.626C21.156 69.098 21.292 68.65 21.564 68.282C21.836 67.914 22.204 67.638 22.668 67.454C23.132 67.262 23.664 67.166 24.264 67.166C24.808 67.166 25.292 67.246 25.716 67.406C26.14 67.566 26.488 67.802 26.76 68.114C27.04 68.418 27.236 68.798 27.348 69.254L25.428 69.59C25.396 69.414 25.324 69.27 25.212 69.158C25.1 69.046 24.964 68.966 24.804 68.918C24.652 68.862 24.5 68.834 24.348 68.834C24.156 68.834 23.98 68.866 23.82 68.93C23.66 68.994 23.528 69.086 23.424 69.206C23.328 69.326 23.28 69.466 23.28 69.626C23.28 69.802 23.336 69.946 23.448 70.058C23.568 70.17 23.728 70.27 23.928 70.358C24.128 70.446 24.348 70.53 24.588 70.61C24.916 70.714 25.252 70.826 25.596 70.946C25.94 71.066 26.26 71.222 26.556 71.414C26.852 71.598 27.088 71.838 27.264 72.134C27.448 72.422 27.54 72.786 27.54 73.226C27.54 73.698 27.424 74.122 27.192 74.498C26.96 74.874 26.612 75.174 26.148 75.398C25.684 75.622 25.096 75.734 24.384 75.734C23.784 75.734 23.244 75.65 22.764 75.482C22.292 75.306 21.904 75.05 21.6 74.714C21.296 74.378 21.096 73.966 21 73.478L22.944 73.094Z" fill="#3B434C"/>
<circle cx="68" cy="47" r="3.87298" fill="#478CBF"/>
<path d="M37.5 35L18 47L37.5 59" stroke="#3B434C" stroke-width="5" stroke-linecap="round" stroke-linejoin="round"/>
<path d="M73 35L92.5 47L73 59" stroke="#3B434C" stroke-width="5" stroke-linecap="round" stroke-linejoin="round"/>
<path d="M58 32L48 62" stroke="#3B434C" stroke-width="5" stroke-linecap="round" stroke-linejoin="round"/>
</svg>
