<svg width="110" height="110" viewBox="0 0 110 110" fill="none" xmlns="http://www.w3.org/2000/svg">
<rect width="110" height="110" fill="#F5F5F5"/>
<rect x="2.5" y="2.5" width="105" height="105" stroke="#478CBF" stroke-width="5"/>
<path d="M84.004 87.01H85.972V90.322C86.148 90.106 86.364 89.926 86.62 89.782C86.884 89.638 87.188 89.566 87.532 89.566C87.996 89.566 88.396 89.67 88.732 89.878C89.068 90.078 89.324 90.37 89.5 90.754C89.684 91.138 89.776 91.602 89.776 92.146V95.65H87.688V92.386C87.688 92.042 87.616 91.782 87.472 91.606C87.328 91.422 87.116 91.33 86.836 91.33C86.548 91.33 86.332 91.442 86.188 91.666C86.044 91.89 85.972 92.178 85.972 92.53V95.65H84.004V87.01Z" fill="#3B434C"/>
<path d="M78.552 94.714H78.84V98.05H76.872V89.65H78.648L78.756 90.406C78.892 90.174 79.112 89.978 79.416 89.818C79.72 89.65 80.052 89.566 80.412 89.566C80.908 89.566 81.348 89.694 81.732 89.95C82.124 90.198 82.432 90.554 82.656 91.018C82.888 91.474 83.004 92.018 83.004 92.65C83.004 93.282 82.892 93.83 82.668 94.294C82.444 94.758 82.136 95.114 81.744 95.362C81.352 95.61 80.908 95.734 80.412 95.734C79.964 95.734 79.584 95.634 79.272 95.434C78.96 95.226 78.72 94.986 78.552 94.714ZM80.88 92.65C80.88 92.274 80.784 91.974 80.592 91.75C80.408 91.518 80.164 91.402 79.86 91.402C79.668 91.402 79.492 91.45 79.332 91.546C79.18 91.642 79.06 91.782 78.972 91.966C78.884 92.15 78.84 92.378 78.84 92.65C78.84 92.914 78.884 93.142 78.972 93.334C79.06 93.518 79.18 93.662 79.332 93.766C79.492 93.862 79.668 93.91 79.86 93.91C80.164 93.91 80.408 93.794 80.592 93.562C80.784 93.33 80.88 93.026 80.88 92.65Z" fill="#3B434C"/>
<path d="M74.036 95.65L73.904 94.906C73.688 95.154 73.464 95.354 73.232 95.506C73.008 95.658 72.704 95.734 72.32 95.734C71.968 95.734 71.644 95.67 71.348 95.542C71.06 95.406 70.828 95.21 70.652 94.954C70.476 94.698 70.388 94.386 70.388 94.018C70.388 93.522 70.564 93.114 70.916 92.794C71.268 92.474 71.824 92.27 72.584 92.182L73.904 92.038V91.69C73.904 91.578 73.848 91.466 73.736 91.354C73.624 91.234 73.452 91.174 73.22 91.174C73.012 91.174 72.832 91.23 72.68 91.342C72.528 91.454 72.424 91.61 72.368 91.81L70.7 91.21C70.884 90.666 71.196 90.258 71.636 89.986C72.076 89.706 72.628 89.566 73.292 89.566C74.132 89.566 74.772 89.774 75.212 90.19C75.652 90.606 75.872 91.178 75.872 91.906V95.65H74.036ZM73.904 93.142L72.968 93.25C72.784 93.274 72.644 93.334 72.548 93.43C72.452 93.526 72.404 93.642 72.404 93.778C72.404 93.914 72.46 94.026 72.572 94.114C72.692 94.202 72.856 94.246 73.064 94.246C73.232 94.246 73.376 94.21 73.496 94.138C73.624 94.058 73.724 93.946 73.796 93.802C73.868 93.658 73.904 93.478 73.904 93.262V93.142Z" fill="#3B434C"/>
<path d="M65.308 89.65H67.096L67.228 90.466C67.38 90.25 67.56 90.074 67.768 89.938C67.976 89.794 68.212 89.698 68.476 89.65C68.748 89.594 69.052 89.594 69.388 89.65V91.522C69.18 91.458 68.952 91.438 68.704 91.462C68.464 91.486 68.232 91.562 68.008 91.69C67.792 91.818 67.616 92.01 67.48 92.266C67.344 92.522 67.276 92.854 67.276 93.262V95.65H65.308V89.65Z" fill="#3B434C"/>
<path d="M62.268 90.01C62.068 89.642 61.812 89.374 61.5 89.206C61.188 89.03 60.824 88.942 60.408 88.942C59.976 88.942 59.592 89.054 59.256 89.278C58.92 89.494 58.656 89.794 58.464 90.178C58.28 90.554 58.188 90.978 58.188 91.45C58.188 91.954 58.28 92.394 58.464 92.77C58.648 93.146 58.912 93.438 59.256 93.646C59.608 93.854 60.028 93.958 60.516 93.958C60.796 93.958 61.052 93.91 61.284 93.814C61.516 93.718 61.724 93.586 61.908 93.418C62.092 93.242 62.252 93.042 62.388 92.818V92.47H60.372V90.838H64.308V93.298C64.116 93.706 63.84 94.098 63.48 94.474C63.12 94.842 62.68 95.146 62.16 95.386C61.64 95.618 61.04 95.734 60.36 95.734C59.72 95.734 59.136 95.63 58.608 95.422C58.088 95.214 57.636 94.918 57.252 94.534C56.868 94.15 56.572 93.698 56.364 93.178C56.164 92.65 56.064 92.074 56.064 91.45C56.064 90.826 56.164 90.254 56.364 89.734C56.572 89.206 56.864 88.75 57.24 88.366C57.624 87.982 58.076 87.686 58.596 87.478C59.116 87.27 59.696 87.166 60.336 87.166C60.952 87.166 61.52 87.262 62.04 87.454C62.568 87.646 63.02 87.922 63.396 88.282C63.78 88.634 64.06 89.058 64.236 89.554L62.268 90.01Z" fill="#3B434C"/>
<path d="M51.908 89.65V87.97H53.912V89.65H55.052V91.402H53.912V93.274C53.912 93.498 53.972 93.658 54.092 93.754C54.212 93.85 54.36 93.902 54.536 93.91C54.712 93.91 54.888 93.89 55.064 93.85V95.578C54.616 95.658 54.2 95.682 53.816 95.65C53.432 95.618 53.096 95.518 52.808 95.35C52.528 95.174 52.308 94.918 52.148 94.582C51.988 94.238 51.908 93.802 51.908 93.274V91.402H51.056V89.65H51.908Z" fill="#3B434C"/>
<path d="M45.604 94.714H45.892V98.05H43.924V89.65H45.7L45.808 90.406C45.944 90.174 46.164 89.978 46.468 89.818C46.772 89.65 47.104 89.566 47.464 89.566C47.96 89.566 48.4 89.694 48.784 89.95C49.176 90.198 49.484 90.554 49.708 91.018C49.94 91.474 50.056 92.018 50.056 92.65C50.056 93.282 49.944 93.83 49.72 94.294C49.496 94.758 49.188 95.114 48.796 95.362C48.404 95.61 47.96 95.734 47.464 95.734C47.016 95.734 46.636 95.634 46.324 95.434C46.012 95.226 45.772 94.986 45.604 94.714ZM47.932 92.65C47.932 92.274 47.836 91.974 47.644 91.75C47.46 91.518 47.216 91.402 46.912 91.402C46.72 91.402 46.544 91.45 46.384 91.546C46.232 91.642 46.112 91.782 46.024 91.966C45.936 92.15 45.892 92.378 45.892 92.65C45.892 92.914 45.936 93.142 46.024 93.334C46.112 93.518 46.232 93.662 46.384 93.766C46.544 93.862 46.72 93.91 46.912 93.91C47.216 93.91 47.46 93.794 47.644 93.562C47.836 93.33 47.932 93.026 47.932 92.65Z" fill="#3B434C"/>
<path d="M40.716 89.65H42.684V95.65H40.716V89.65ZM41.7 89.206C41.332 89.206 41.036 89.102 40.812 88.894C40.588 88.678 40.476 88.418 40.476 88.114C40.476 87.802 40.588 87.542 40.812 87.334C41.036 87.118 41.332 87.01 41.7 87.01C42.06 87.01 42.352 87.118 42.576 87.334C42.808 87.542 42.924 87.802 42.924 88.114C42.924 88.418 42.808 88.678 42.576 88.894C42.352 89.102 42.06 89.206 41.7 89.206Z" fill="#3B434C"/>
<ellipse cx="41.679" cy="88.125" rx="1.25" ry="1.125" fill="#478CBF"/>
<path d="M35.396 89.65H37.184L37.316 90.466C37.468 90.25 37.648 90.074 37.856 89.938C38.064 89.794 38.3 89.698 38.564 89.65C38.836 89.594 39.14 89.594 39.476 89.65V91.522C39.268 91.458 39.04 91.438 38.792 91.462C38.552 91.486 38.32 91.562 38.096 91.69C37.88 91.818 37.704 92.01 37.568 92.266C37.432 92.522 37.364 92.854 37.364 93.262V95.65H35.396V89.65Z" fill="#3B434C"/>
<path d="M31.54 95.734C30.948 95.742 30.424 95.618 29.968 95.362C29.52 95.106 29.168 94.746 28.912 94.282C28.664 93.818 28.54 93.278 28.54 92.662C28.54 92.054 28.664 91.518 28.912 91.054C29.168 90.582 29.52 90.218 29.968 89.962C30.416 89.698 30.932 89.566 31.516 89.566C32.204 89.566 32.804 89.742 33.316 90.094C33.828 90.446 34.184 90.93 34.384 91.546L32.5 91.954C32.428 91.762 32.316 91.614 32.164 91.51C32.02 91.406 31.852 91.354 31.66 91.354C31.46 91.354 31.28 91.41 31.12 91.522C30.968 91.634 30.848 91.79 30.76 91.99C30.672 92.19 30.628 92.414 30.628 92.662C30.628 93.038 30.724 93.346 30.916 93.586C31.108 93.826 31.352 93.946 31.648 93.946C31.84 93.946 32.008 93.894 32.152 93.79C32.304 93.686 32.424 93.538 32.512 93.346L34.396 93.766C34.204 94.358 33.848 94.834 33.328 95.194C32.816 95.546 32.22 95.726 31.54 95.734Z" fill="#3B434C"/>
<path d="M22.944 93.094C22.984 93.326 23.064 93.514 23.184 93.658C23.312 93.794 23.464 93.894 23.64 93.958C23.824 94.014 24.024 94.042 24.24 94.042C24.616 94.042 24.904 93.966 25.104 93.814C25.312 93.654 25.416 93.45 25.416 93.202C25.416 93.002 25.352 92.842 25.224 92.722C25.104 92.602 24.932 92.502 24.708 92.422C24.492 92.334 24.24 92.246 23.952 92.158C23.632 92.07 23.308 91.97 22.98 91.858C22.652 91.738 22.348 91.59 22.068 91.414C21.788 91.23 21.564 90.994 21.396 90.706C21.228 90.418 21.148 90.058 21.156 89.626C21.156 89.098 21.292 88.65 21.564 88.282C21.836 87.914 22.204 87.638 22.668 87.454C23.132 87.262 23.664 87.166 24.264 87.166C24.808 87.166 25.292 87.246 25.716 87.406C26.14 87.566 26.488 87.802 26.76 88.114C27.04 88.418 27.236 88.798 27.348 89.254L25.428 89.59C25.396 89.414 25.324 89.27 25.212 89.158C25.1 89.046 24.964 88.966 24.804 88.918C24.652 88.862 24.5 88.834 24.348 88.834C24.156 88.834 23.98 88.866 23.82 88.93C23.66 88.994 23.528 89.086 23.424 89.206C23.328 89.326 23.28 89.466 23.28 89.626C23.28 89.802 23.336 89.946 23.448 90.058C23.568 90.17 23.728 90.27 23.928 90.358C24.128 90.446 24.348 90.53 24.588 90.61C24.916 90.714 25.252 90.826 25.596 90.946C25.94 91.066 26.26 91.222 26.556 91.414C26.852 91.598 27.088 91.838 27.264 92.134C27.448 92.422 27.54 92.786 27.54 93.226C27.54 93.698 27.424 94.122 27.192 94.498C26.96 94.874 26.612 95.174 26.148 95.398C25.684 95.622 25.096 95.734 24.384 95.734C23.784 95.734 23.244 95.65 22.764 95.482C22.292 95.306 21.904 95.05 21.6 94.714C21.296 94.378 21.096 93.966 21 93.478L22.944 93.094Z" fill="#3B434C"/>
<circle cx="71.0098" cy="47.2241" r="5.6527" fill="#478CBF"/>
<path d="M39.0604 18.9L21 46.5L39.0604 74.1" stroke="#3B434C" stroke-width="5" stroke-linecap="round" stroke-linejoin="round"/>
<path d="M71.9396 18.9L90 46.5L71.9396 74.1" stroke="#3B434C" stroke-width="5" stroke-linecap="round" stroke-linejoin="round"/>
<path d="M59.8332 12L50.5714 81" stroke="#3B434C" stroke-width="5" stroke-linecap="round" stroke-linejoin="round"/>
</svg>
